<?xml version="1.0" standalone="no"?>
<!DOCTYPE svg PUBLIC "-//W3C//DTD SVG 20010904//EN"
 "http://www.w3.org/TR/2001/REC-SVG-20010904/DTD/svg10.dtd">
<svg version="1.0" xmlns="http://www.w3.org/2000/svg"
 width="500.000000pt" height="500.000000pt" viewBox="0 0 500.000000 500.000000"
 preserveAspectRatio="xMidYMid meet">

<g transform="translate(0.000000,500.000000) scale(0.100000,-0.100000)"
fill="#000000" stroke="none">
<path d="M2340 2880 l0 -190 165 0 165 0 0 60 0 60 -100 0 -100 0 0 130 0 130
-65 0 -65 0 0 -190z"/>
<path d="M990 2616 c0 -420 0 -426 20 -426 20 0 20 5 18 422 -3 393 -4 423
-20 426 -17 3 -18 -22 -18 -422z"/>
<path d="M1980 2615 c0 -418 0 -425 20 -425 20 0 20 7 20 425 0 418 0 425 -20
425 -20 0 -20 -7 -20 -425z"/>
<path d="M2970 2615 c0 -418 0 -425 20 -425 20 0 20 7 20 425 0 418 0 425 -20
425 -20 0 -20 -7 -20 -425z"/>
<path d="M3965 3027 c-3 -6 -4 -196 -3 -422 3 -381 4 -410 21 -413 16 -3 17
22 17 422 0 376 -2 426 -15 426 -9 0 -18 -6 -20 -13z"/>
<path d="M217 2933 c-2 -5 51 -137 117 -296 l121 -288 54 3 54 3 118 283 c66
156 119 288 119 293 0 6 -31 9 -72 7 l-73 -3 -66 -175 c-37 -96 -71 -181 -76
-188 -6 -10 -18 11 -42 74 -19 49 -52 135 -73 192 l-40 102 -68 0 c-38 0 -71
-3 -73 -7z"/>
<path d="M4210 2930 c0 -6 45 -78 100 -160 l100 -150 0 -135 0 -135 70 0 70 0
0 133 0 132 105 157 c58 87 105 160 105 163 0 3 -35 5 -77 3 l-78 -3 -62 -94
-62 -93 -57 88 c-32 49 -63 92 -68 96 -17 12 -146 9 -146 -2z"/>
<path d="M1441 2609 c-84 -17 -159 -75 -203 -159 -19 -37 -23 -60 -23 -135 0
-126 -1 -125 90 -125 41 0 75 2 75 4 0 2 -7 20 -15 39 -31 75 -8 180 50 225
68 54 170 31 212 -47 27 -52 30 -124 8 -178 -8 -19 -15 -37 -15 -39 0 -2 34
-4 75 -4 73 0 76 1 86 28 19 48 14 163 -10 219 -54 124 -197 199 -330 172z"/>
<path d="M3280 2401 l0 -211 65 0 c64 0 65 0 65 28 l1 27 22 -27 c21 -26 28
-28 101 -28 l78 0 -27 36 c-15 19 -25 36 -24 37 2 2 17 9 32 17 49 24 71 67
75 142 4 56 1 73 -18 103 -37 60 -83 76 -236 82 l-134 6 0 -212z m213 88 c30
-16 37 -28 37 -68 0 -49 -24 -71 -77 -71 l-43 0 0 75 0 75 31 0 c17 0 40 -5
52 -11z"/>
</g>
</svg>
